<svg id="SvgjsSvg1001" width="288" height="288" xmlns="http://www.w3.org/2000/svg" version="1.1" xmlns:xlink="http://www.w3.org/1999/xlink" xmlns:svgjs="http://svgjs.com/svgjs"><defs id="SvgjsDefs1002"></defs><g id="SvgjsG1008"><svg xmlns="http://www.w3.org/2000/svg" viewBox="0 0 1252 1024" width="288" height="288"><path d="M947.655 721.089l41.409 92.063c10.462 23.268-1.183 50.768-26.152 56.030-162.964 34.332-336.492-48.634-408.163-207.986-83.388-185.407 2.846-400.522 182.718-481.421 65.519-29.47 135.652-38.833 203.014-28.39 24.73 3.834 37.905 29.864 29.577 53.46l-33.644 95.255c-7.179 20.334-28.228 31.909-49.789 32.313-25.185 0.471-50.165 5.786-70.474 14.918-91.318 41.072-133.672 146.624-91.358 240.712 29.958 66.594 98.037 108.669 171.486 105.045 21.22-1.047 42.667 8.624 51.376 28.001zM1044.326 788.076l-41.142-91.466c-8.795-19.558-1.593-42.246 13.46-57.515 35.465-35.959 54.414-85.882 51.74-136.32-1.132-21.415 8.533-43.163 28.092-51.959l91.466-41.139c23.336-10.495 50.898 1.25 56.092 26.304 28.791 138.881-26.601 284.829-140.288 369.633-20.508 15.297-48.924 5.797-59.42-17.539zM1028.693 228.72c9.079-23.913 36.853-35.118 58.351-21.263 36.289 23.388 68.107 52.779 93.895 87.584 15.172 20.472 5.615 48.72-17.624 59.172l-93.747 42.164c-18.654 8.392-40.22 2.264-54.625-12.268-1.752-1.771-3.533-3.501-5.336-5.189-15.588-14.574-23.962-36.77-16.39-56.719l35.476-93.481zM87.299 33.917c-48.214 0-87.299 39.085-87.299 87.299v781.582c0 48.213 39.085 87.296 87.299 87.296h502.957c36.796 0 68.272-22.761 81.118-54.972-31.46-16.145-60.865-35.726-87.728-58.249-4.306 10.689-14.776 18.239-27.007 18.239h-172.93c-16.072 0-29.1-13.028-29.1-29.099v-43.122c0-16.071 13.028-29.099 29.1-29.099h122.085c-19.471-26.561-36.23-55.233-49.868-85.618v24.855c0 16.071-13.028 29.104-29.1 29.104h-43.117c-16.071 0-29.1-13.033-29.1-29.104v-43.116c0-16.071 13.028-29.099 29.1-29.099h43.117c4.14 0 8.078 0.865 11.643 2.423-3.699-11.201-6.99-22.585-9.855-34.139-0.592 0.034-1.188 0.051-1.789 0.051h-43.117c-16.072 0-29.1-13.028-29.1-29.099v-43.116c0-16.071 13.028-29.099 29.1-29.099h31.224c-0.111-4.208-0.167-8.43-0.167-12.665 0-6.362 0.126-12.695 0.375-18.996h-31.433c-16.072 0-29.1-13.029-29.1-29.1v-43.118c0-16.071 13.028-29.1 29.1-29.1h43.117c1.139 0 2.264 0.065 3.37 0.193 5.731-21.83 12.987-43.042 21.647-63.516h-327.759c-16.071 0-29.1-13.029-29.1-29.1v-144.435c0-16.071 13.029-29.099 29.1-29.1h429.389c14.9 0.001 27.186 11.2 28.898 25.64 27.75-23.431 58.249-43.717 90.937-60.308-11.366-35.008-44.254-60.317-83.052-60.317h-502.957zM94.985 423.958c0-16.071 13.029-29.1 29.1-29.1h43.118c16.071 0 29.1 13.029 29.1 29.1v43.118c0 16.071-13.029 29.1-29.1 29.1h-43.118c-16.071 0-29.1-13.029-29.1-29.1v-43.118zM94.985 556.937c0-16.071 13.029-29.099 29.1-29.099h43.118c16.071 0 29.1 13.028 29.1 29.099v43.116c0 16.071-13.029 29.099-29.1 29.099h-43.118c-16.071 0-29.1-13.028-29.1-29.099v-43.116zM124.084 660.816h43.118c16.071 0 29.1 13.028 29.1 29.099v43.116c0 16.071-13.029 29.104-29.1 29.104h-43.118c-16.071 0-29.1-13.033-29.1-29.104v-43.116c0-16.071 13.029-29.099 29.1-29.099zM94.985 822.892c0-16.071 13.029-29.099 29.1-29.099h43.118c16.071 0 29.1 13.028 29.1 29.099v43.122c0 16.071-13.029 29.099-29.1 29.099h-43.118c-16.071 0-29.1-13.028-29.1-29.099v-43.122zM253.897 394.858h43.118c16.071 0 29.099 13.029 29.099 29.1v43.118c0 16.071-13.028 29.1-29.099 29.1h-43.118c-16.071-0.001-29.1-13.029-29.1-29.1v-43.118c0-16.071 13.029-29.1 29.1-29.1zM224.797 556.937c0-16.071 13.029-29.099 29.1-29.099h43.118c16.071 0 29.099 13.028 29.099 29.099v43.116c0 16.071-13.028 29.099-29.099 29.099h-43.118c-16.071 0-29.1-13.028-29.1-29.099v-43.116zM253.897 660.816h43.118c16.071 0 29.099 13.028 29.099 29.099v43.116c0 16.071-13.028 29.104-29.099 29.104h-43.118c-16.071 0-29.1-13.033-29.1-29.104v-43.116c0-16.071 13.029-29.099 29.1-29.099zM224.797 822.892c0-16.071 13.029-29.099 29.1-29.099h43.118c16.071 0 29.099 13.028 29.099 29.099v43.122c0 16.071-13.028 29.099-29.099 29.099h-43.118c-16.071 0-29.1-13.028-29.1-29.099v-43.122z" fill="#1ab163" class="color000 svgShape"></path></svg></g></svg>