<?xml version="1.0" encoding="UTF-8"?>
<svg xmlns="http://www.w3.org/2000/svg" width="32" height="32" viewBox="0 0 32 32" fill="none">
  <g clip-path="url(#clip0_11_475)">
    <path d="M30.7643 9.53244C29.9661 7.66756 28.8141 5.98578 27.3936 4.57422C25.9696 3.16089 24.2754 2.01778 22.3963 1.22667C20.5154 0.437333 18.4514 0 16.2843 0C14.1172 0 12.0514 0.437333 10.1723 1.22667C8.29317 2.01778 6.59895 3.16089 5.17495 4.57422C3.75272 5.98578 2.59894 7.66756 1.80428 9.53244C1.00783 11.3991 0.566945 13.4489 0.566945 15.5982C0.566945 16.2951 0.613167 16.9849 0.705612 17.6693C0.798056 18.3538 0.934945 19.0293 1.11628 19.6924C1.29761 20.3556 1.52339 21.0062 1.79006 21.6409C2.05672 22.2756 2.36961 22.8924 2.72161 23.488L2.04783 25.4791L1.37228 27.4684L0.698501 29.4596L0.0229452 31.4507C0.00872298 31.488 0.00161187 31.5253 -0.000165907 31.5644C-0.00194368 31.6018 0.00161187 31.6409 0.0105008 31.6764C0.0193896 31.712 0.0318341 31.7493 0.0496119 31.7831C0.0673896 31.8169 0.0905008 31.8471 0.118945 31.8756C0.138501 31.8969 0.159834 31.9129 0.182945 31.9289C0.206056 31.9449 0.230945 31.9591 0.255834 31.968C0.280723 31.9769 0.30739 31.9858 0.334056 31.9911C0.360723 31.9964 0.38739 32 0.415834 32C0.426501 32 0.437167 32 0.447834 31.9982C0.458501 31.9982 0.469167 31.9964 0.479834 31.9947C0.490501 31.9929 0.501167 31.9911 0.511834 31.9893C0.522501 31.9858 0.533167 31.984 0.543834 31.9804L2.6185 31.3209L4.69317 30.6613L6.76961 30.0018L8.84428 29.3422C9.41317 29.6462 9.99806 29.9129 10.6007 30.144C11.2016 30.3751 11.8167 30.5689 12.4425 30.7253C13.0683 30.88 13.7029 30.9973 14.3447 31.0773C14.9865 31.1556 15.6354 31.1947 16.2843 31.1947C18.4514 31.1947 20.5154 30.7591 22.3963 29.968C24.2754 29.1787 25.9696 28.0338 27.3936 26.6222C28.8158 25.2107 29.9661 23.5307 30.7643 21.664C31.5589 19.7991 31.9998 17.7493 31.9998 15.5982C31.9998 13.4489 31.5589 11.3991 30.7643 9.53244ZM24.4656 19.7493C24.4478 19.9396 24.4176 20.1493 24.3678 20.3609C24.3216 20.5742 24.2558 20.7929 24.1812 21.0044C24.0834 21.2764 23.9038 21.536 23.6763 21.7724C23.4487 22.0107 23.1732 22.224 22.8869 22.4071C22.5989 22.5902 22.3003 22.7413 22.0229 22.8516C21.7456 22.9618 21.4914 23.0311 21.2976 23.0471L21.2692 23.0489L21.2407 23.0524L21.2105 23.056L21.1803 23.0578C21.1358 23.0631 21.0896 23.0667 21.0416 23.072C20.9936 23.0756 20.9403 23.0809 20.8887 23.0844C20.8372 23.088 20.7803 23.0916 20.7216 23.0933C20.6647 23.0951 20.6043 23.0969 20.5403 23.0969C20.3892 23.0969 20.2061 23.0898 19.9838 23.0649C19.7634 23.0418 19.5021 23.0009 19.1892 22.9316C18.8763 22.8622 18.5118 22.7644 18.0852 22.6276C17.6567 22.4907 17.1661 22.3147 16.6025 22.0889C16.0158 21.8542 15.4309 21.552 14.8549 21.1911C14.2789 20.8284 13.7101 20.4036 13.1589 19.9236C12.6061 19.4436 12.0692 18.9102 11.5554 18.3271C11.0416 17.7422 10.5492 17.1093 10.0852 16.4302C10.0763 16.4196 10.0692 16.4071 10.0621 16.4C10.0549 16.3893 10.0496 16.3804 10.0443 16.3716C10.0372 16.3627 10.0336 16.3556 10.0301 16.3502C10.0247 16.3431 10.0212 16.3378 10.0176 16.3342C9.89672 16.1742 9.73494 15.9502 9.56072 15.6747C9.3865 15.4009 9.19983 15.0738 9.02917 14.7129C8.85672 14.352 8.70206 13.9556 8.58828 13.5378C8.4745 13.12 8.40339 12.6809 8.40339 12.2364C8.40339 11.7422 8.46383 11.3013 8.55983 10.912C8.65583 10.5227 8.79272 10.1867 8.94561 9.90044C9.10028 9.61244 9.27094 9.37778 9.43983 9.19289C9.60694 9.008 9.77228 8.86933 9.91094 8.78222C10.0425 8.69867 10.2149 8.62756 10.4052 8.56533C10.5936 8.50489 10.7998 8.45333 10.9954 8.41244C11.1909 8.37156 11.3776 8.33956 11.5287 8.31822C11.6798 8.29689 11.7954 8.28444 11.8505 8.28267C11.8949 8.28089 11.9269 8.27911 11.9483 8.27733C11.9714 8.27733 11.9838 8.27556 11.9909 8.27556C11.9981 8.27556 12.0034 8.27556 12.0087 8.27556C12.0123 8.27556 12.0176 8.27556 12.0301 8.27556C12.1456 8.27556 12.2523 8.29333 12.3536 8.32711C12.4532 8.36444 12.5456 8.41778 12.6327 8.49067C12.7181 8.56356 12.7981 8.65422 12.8727 8.76444C12.9474 8.87467 13.0149 9.008 13.0772 9.15733C13.1038 9.21956 13.1856 9.41689 13.2923 9.67467C13.4007 9.93422 13.5341 10.2596 13.6674 10.5796C13.8007 10.8996 13.9323 11.2142 14.0336 11.456C14.1367 11.6996 14.2078 11.8684 14.2221 11.8951C14.2381 11.9289 14.2647 11.9787 14.2896 12.0427C14.3145 12.1067 14.3394 12.1849 14.3536 12.2756C14.3696 12.3662 14.3749 12.464 14.3607 12.5742C14.3465 12.6827 14.3145 12.7982 14.2541 12.9209L14.2398 12.9458L14.2274 12.9724L14.2149 12.9991L14.2007 13.024C14.1758 13.0756 14.1527 13.1253 14.1278 13.1716C14.1029 13.2213 14.0763 13.2693 14.0461 13.3173C14.0176 13.3671 13.9856 13.4151 13.9501 13.4667C13.9127 13.5164 13.8718 13.5716 13.8238 13.6267C13.8078 13.6444 13.7918 13.664 13.7776 13.68C13.7598 13.6996 13.7438 13.7191 13.7278 13.7387C13.7118 13.7564 13.6958 13.776 13.6816 13.7938C13.6674 13.8116 13.6496 13.8311 13.6336 13.8507C13.5998 13.8898 13.5678 13.9307 13.5341 13.9698C13.5003 14.0089 13.4665 14.0498 13.4327 14.0889C13.3989 14.128 13.3669 14.1653 13.3332 14.2009C13.2994 14.2364 13.2674 14.2702 13.2354 14.3022C13.2247 14.3129 13.2123 14.3271 13.1981 14.3396C13.1838 14.3556 13.1696 14.3716 13.1554 14.3876C13.1412 14.4018 13.1287 14.416 13.1181 14.4302C13.1092 14.4427 13.1021 14.4551 13.1003 14.464C13.1003 14.464 13.1003 14.4658 13.1003 14.4693C13.1003 14.4729 13.1021 14.4782 13.1038 14.4871C13.1056 14.4942 13.1092 14.5049 13.1163 14.5156C13.1216 14.528 13.1287 14.5422 13.1376 14.5564C13.2034 14.6684 13.3705 14.912 13.6229 15.2373C13.8772 15.5627 14.2167 15.9627 14.6274 16.3858C15.0381 16.8071 15.5198 17.2498 16.0532 17.6551C16.5865 18.0604 17.1749 18.4267 17.8007 18.6987C17.8292 18.7111 17.8701 18.7289 17.9181 18.7484C17.9678 18.7698 18.0265 18.7911 18.0781 18.8142C18.1314 18.8356 18.1829 18.8533 18.2203 18.8693C18.2576 18.8836 18.2861 18.8942 18.2896 18.8942C18.2967 18.8942 18.3038 18.8907 18.3109 18.8871C18.3181 18.8836 18.3252 18.8764 18.3358 18.8693C18.3429 18.8622 18.3501 18.8551 18.3607 18.8462C18.3678 18.8373 18.3749 18.8302 18.3821 18.8213C18.4372 18.7591 18.5225 18.6613 18.6221 18.544C18.7234 18.4284 18.8407 18.2898 18.9563 18.1493C19.0736 18.0107 19.1909 17.8667 19.2923 17.7369C19.3936 17.6071 19.4807 17.4898 19.5394 17.4044C19.5909 17.3262 19.6478 17.2587 19.7065 17.2018C19.7652 17.1431 19.8274 17.0933 19.8932 17.056C19.9589 17.0169 20.0265 16.9867 20.0994 16.9671C20.1705 16.9476 20.2469 16.9369 20.3269 16.9369C20.3732 16.9369 20.4212 16.9404 20.4692 16.9476C20.5136 16.9547 20.5616 16.9636 20.6061 16.976C20.6505 16.9867 20.6949 17.0009 20.7394 17.0133C20.7821 17.0276 20.8265 17.0436 20.8674 17.056C20.9723 17.0933 21.1963 17.1929 21.4736 17.3227C21.7509 17.4507 22.0834 17.6089 22.4052 17.7653C22.7269 17.92 23.0363 18.0711 23.2692 18.1849C23.5038 18.2987 23.6621 18.3751 23.6763 18.3822C23.7527 18.4196 23.8238 18.4551 23.8932 18.4907C23.9589 18.5262 24.0229 18.56 24.0798 18.5991C24.1385 18.6364 24.1918 18.6773 24.2398 18.7236C24.2843 18.768 24.3269 18.8196 24.3607 18.8764C24.4123 18.9618 24.4461 19.0827 24.4621 19.232C24.4816 19.3831 24.4816 19.5591 24.4656 19.7493Z" fill="#43AD45"></path>
  </g>
  <defs>
    <clipPath id="clip0_11_475">
      <rect width="32" height="32" fill="white"></rect>
    </clipPath>
  </defs>
</svg>
