<?xml version="1.0" encoding="utf-8"?>
<!-- Generator: Adobe Illustrator 16.0.3, SVG Export Plug-In . SVG Version: 6.00 Build 0)  -->
<!DOCTYPE svg PUBLIC "-//W3C//DTD SVG 1.1//EN" "http://www.w3.org/Graphics/SVG/1.1/DTD/svg11.dtd">
<svg version="1.1" id="Layer_1" xmlns="http://www.w3.org/2000/svg" xmlns:xlink="http://www.w3.org/1999/xlink" x="0px" y="0px"
	 width="24px" height="16px" viewBox="0 0 24 16" enable-background="new 0 0 24 16" xml:space="preserve">
<g>
	<path fill="#ED2224" d="M23.506,2.504c-0.277-0.979-1.087-1.751-2.115-2.015C19.513,0,12,0,12,0S4.488,0,2.609,0.47
		C1.602,0.734,0.771,1.524,0.494,2.504C0,4.292,0,8,0,8s0,3.728,0.494,5.496c0.277,0.98,1.088,1.751,2.115,2.015
		C4.508,16,12,16,12,16s7.513,0,9.391-0.47c1.028-0.265,1.838-1.036,2.115-2.015C24,11.728,24,8.019,24,8.019
		S24.021,4.292,23.506,2.504z M9.608,11.425V4.574L15.856,8L9.608,11.425z"/>
	<polygon fill="#FFFFFF" points="9.608,11.425 15.856,8 9.608,4.574 	"/>
</g>
</svg>
